<mxfile host="app.diagrams.net" agent="Mozilla/5.0 (Windows NT 10.0; Win64; x64; rv:129.0) Gecko/20100101 Firefox/129.0" version="24.7.8">
  <diagram name="Page-1" id="GkVYooJLSd350yOr5RhN">
    <mxGraphModel dx="1050" dy="577" grid="1" gridSize="10" guides="1" tooltips="1" connect="1" arrows="1" fold="1" page="1" pageScale="1" pageWidth="827" pageHeight="1169" math="0" shadow="0">
      <root>
        <mxCell id="0" />
        <mxCell id="1" parent="0" />
        <mxCell id="DLzYbL6-j8xfiB1OlHj5-7" value="" style="rounded=1;whiteSpace=wrap;html=1;" vertex="1" parent="1">
          <mxGeometry x="70" y="240" width="620" height="480" as="geometry" />
        </mxCell>
        <mxCell id="DLzYbL6-j8xfiB1OlHj5-10" value="VPC" style="sketch=0;outlineConnect=0;gradientColor=none;html=1;whiteSpace=wrap;fontSize=12;fontStyle=0;shape=mxgraph.aws4.group;grIcon=mxgraph.aws4.group_vpc;strokeColor=#879196;fillColor=none;verticalAlign=top;align=left;spacingLeft=30;fontColor=#879196;dashed=0;movable=1;resizable=1;rotatable=1;deletable=1;editable=1;locked=0;connectable=1;" vertex="1" parent="1">
          <mxGeometry x="100" y="330" width="550" height="360" as="geometry" />
        </mxCell>
        <mxCell id="DLzYbL6-j8xfiB1OlHj5-16" style="edgeStyle=orthogonalEdgeStyle;rounded=0;orthogonalLoop=1;jettySize=auto;html=1;startArrow=classic;startFill=1;strokeColor=#edae3a;dashed=1;" edge="1" parent="1" source="DLzYbL6-j8xfiB1OlHj5-1" target="DLzYbL6-j8xfiB1OlHj5-5">
          <mxGeometry relative="1" as="geometry" />
        </mxCell>
        <mxCell id="DLzYbL6-j8xfiB1OlHj5-20" value="Alerts/Tickets" style="edgeLabel;html=1;align=center;verticalAlign=middle;resizable=0;points=[];" vertex="1" connectable="0" parent="DLzYbL6-j8xfiB1OlHj5-16">
          <mxGeometry x="0.04" y="-2" relative="1" as="geometry">
            <mxPoint as="offset" />
          </mxGeometry>
        </mxCell>
        <mxCell id="DLzYbL6-j8xfiB1OlHj5-1" value="&lt;font color=&quot;#000000&quot;&gt;Elastic &amp;amp; Kibana&lt;/font&gt;" style="sketch=0;outlineConnect=0;fontColor=#ffffff;fillColor=#1ba1e2;strokeColor=#006EAF;dashed=0;verticalLabelPosition=bottom;verticalAlign=top;align=center;html=1;fontSize=12;fontStyle=0;aspect=fixed;pointerEvents=1;shape=mxgraph.aws4.traditional_server;" vertex="1" parent="1">
          <mxGeometry x="342" y="390" width="45" height="78" as="geometry" />
        </mxCell>
        <mxCell id="DLzYbL6-j8xfiB1OlHj5-13" style="edgeStyle=orthogonalEdgeStyle;rounded=0;orthogonalLoop=1;jettySize=auto;html=1;" edge="1" parent="1" source="DLzYbL6-j8xfiB1OlHj5-2" target="DLzYbL6-j8xfiB1OlHj5-4">
          <mxGeometry relative="1" as="geometry" />
        </mxCell>
        <mxCell id="DLzYbL6-j8xfiB1OlHj5-17" value="Manage" style="edgeLabel;html=1;align=center;verticalAlign=middle;resizable=0;points=[];" vertex="1" connectable="0" parent="DLzYbL6-j8xfiB1OlHj5-13">
          <mxGeometry x="-0.3333" relative="1" as="geometry">
            <mxPoint as="offset" />
          </mxGeometry>
        </mxCell>
        <mxCell id="DLzYbL6-j8xfiB1OlHj5-22" style="rounded=0;orthogonalLoop=1;jettySize=auto;html=1;dashed=1;" edge="1" parent="1" source="DLzYbL6-j8xfiB1OlHj5-2" target="DLzYbL6-j8xfiB1OlHj5-1">
          <mxGeometry relative="1" as="geometry" />
        </mxCell>
        <mxCell id="DLzYbL6-j8xfiB1OlHj5-24" value="&lt;div&gt;Envoi de logs &lt;br&gt;&lt;/div&gt;&lt;div&gt;via l&#39;agent&lt;br&gt;&lt;/div&gt;" style="edgeLabel;html=1;align=center;verticalAlign=middle;resizable=0;points=[];" vertex="1" connectable="0" parent="DLzYbL6-j8xfiB1OlHj5-22">
          <mxGeometry x="-0.0379" y="2" relative="1" as="geometry">
            <mxPoint as="offset" />
          </mxGeometry>
        </mxCell>
        <mxCell id="DLzYbL6-j8xfiB1OlHj5-2" value="&lt;div&gt;Windows Server&lt;/div&gt;&lt;div&gt;avec RDP&lt;/div&gt;" style="sketch=0;outlineConnect=0;fontColor=#232F3E;gradientColor=none;fillColor=#232F3D;strokeColor=none;dashed=0;verticalLabelPosition=bottom;verticalAlign=top;align=center;html=1;fontSize=12;fontStyle=0;aspect=fixed;pointerEvents=1;shape=mxgraph.aws4.traditional_server;" vertex="1" parent="1">
          <mxGeometry x="127.5" y="570" width="45" height="78" as="geometry" />
        </mxCell>
        <mxCell id="DLzYbL6-j8xfiB1OlHj5-14" style="edgeStyle=orthogonalEdgeStyle;rounded=0;orthogonalLoop=1;jettySize=auto;html=1;" edge="1" parent="1" source="DLzYbL6-j8xfiB1OlHj5-3" target="DLzYbL6-j8xfiB1OlHj5-4">
          <mxGeometry relative="1" as="geometry" />
        </mxCell>
        <mxCell id="DLzYbL6-j8xfiB1OlHj5-18" value="Manage" style="edgeLabel;html=1;align=center;verticalAlign=middle;resizable=0;points=[];" vertex="1" connectable="0" parent="DLzYbL6-j8xfiB1OlHj5-14">
          <mxGeometry x="0.2" y="1" relative="1" as="geometry">
            <mxPoint as="offset" />
          </mxGeometry>
        </mxCell>
        <mxCell id="DLzYbL6-j8xfiB1OlHj5-23" style="rounded=0;orthogonalLoop=1;jettySize=auto;html=1;dashed=1;" edge="1" parent="1" source="DLzYbL6-j8xfiB1OlHj5-3" target="DLzYbL6-j8xfiB1OlHj5-1">
          <mxGeometry relative="1" as="geometry" />
        </mxCell>
        <mxCell id="DLzYbL6-j8xfiB1OlHj5-25" value="&lt;div&gt;Envoi de logs&lt;/div&gt;&lt;div&gt;via l&#39;agent&lt;br&gt;&lt;/div&gt;" style="edgeLabel;html=1;align=center;verticalAlign=middle;resizable=0;points=[];" vertex="1" connectable="0" parent="DLzYbL6-j8xfiB1OlHj5-23">
          <mxGeometry x="0.0044" y="-1" relative="1" as="geometry">
            <mxPoint as="offset" />
          </mxGeometry>
        </mxCell>
        <mxCell id="DLzYbL6-j8xfiB1OlHj5-3" value="&lt;div&gt;Ubuntu Server&lt;/div&gt;&lt;div&gt;avec SSH&lt;br&gt;&lt;/div&gt;" style="sketch=0;outlineConnect=0;fontColor=#232F3E;gradientColor=none;fillColor=#232F3D;strokeColor=none;dashed=0;verticalLabelPosition=bottom;verticalAlign=top;align=center;html=1;fontSize=12;fontStyle=0;aspect=fixed;pointerEvents=1;shape=mxgraph.aws4.traditional_server;" vertex="1" parent="1">
          <mxGeometry x="550" y="570" width="45" height="78" as="geometry" />
        </mxCell>
        <mxCell id="DLzYbL6-j8xfiB1OlHj5-15" style="edgeStyle=orthogonalEdgeStyle;rounded=0;orthogonalLoop=1;jettySize=auto;html=1;startArrow=classic;startFill=1;dashed=1;strokeColor=#f0b80f;" edge="1" parent="1" source="DLzYbL6-j8xfiB1OlHj5-4" target="DLzYbL6-j8xfiB1OlHj5-1">
          <mxGeometry relative="1" as="geometry" />
        </mxCell>
        <mxCell id="DLzYbL6-j8xfiB1OlHj5-19" value="Manage Agents" style="edgeLabel;html=1;align=center;verticalAlign=middle;resizable=0;points=[];" vertex="1" connectable="0" parent="DLzYbL6-j8xfiB1OlHj5-15">
          <mxGeometry x="0.0178" y="-1" relative="1" as="geometry">
            <mxPoint x="1" as="offset" />
          </mxGeometry>
        </mxCell>
        <mxCell id="DLzYbL6-j8xfiB1OlHj5-4" value="&lt;font color=&quot;#000000&quot;&gt;Fleet Server&lt;/font&gt;" style="sketch=0;outlineConnect=0;fontColor=#ffffff;fillColor=#60a917;strokeColor=#2D7600;dashed=0;verticalLabelPosition=bottom;verticalAlign=top;align=center;html=1;fontSize=12;fontStyle=0;aspect=fixed;pointerEvents=1;shape=mxgraph.aws4.traditional_server;" vertex="1" parent="1">
          <mxGeometry x="342" y="570" width="45" height="78" as="geometry" />
        </mxCell>
        <mxCell id="DLzYbL6-j8xfiB1OlHj5-5" value="&lt;div&gt;&lt;font color=&quot;#000000&quot;&gt;Serveur de&lt;/font&gt;&lt;/div&gt;&lt;div&gt;&lt;font color=&quot;#000000&quot;&gt;Ticketing&lt;br&gt;&lt;/font&gt;&lt;/div&gt;" style="sketch=0;outlineConnect=0;fontColor=#ffffff;fillColor=#6a00ff;strokeColor=#3700CC;dashed=0;verticalLabelPosition=bottom;verticalAlign=top;align=center;html=1;fontSize=12;fontStyle=0;aspect=fixed;pointerEvents=1;shape=mxgraph.aws4.traditional_server;" vertex="1" parent="1">
          <mxGeometry x="550" y="381" width="45" height="78" as="geometry" />
        </mxCell>
        <mxCell id="DLzYbL6-j8xfiB1OlHj5-6" value="&lt;div&gt;&lt;font color=&quot;#000000&quot;&gt;Serveur&lt;/font&gt;&lt;/div&gt;&lt;div&gt;&lt;font color=&quot;#000000&quot;&gt;C2&lt;br&gt;&lt;/font&gt;&lt;/div&gt;" style="sketch=0;outlineConnect=0;fontColor=#ffffff;fillColor=#e51400;strokeColor=#B20000;dashed=0;verticalLabelPosition=bottom;verticalAlign=top;align=center;html=1;fontSize=12;fontStyle=0;aspect=fixed;pointerEvents=1;shape=mxgraph.aws4.traditional_server;" vertex="1" parent="1">
          <mxGeometry x="737.5" y="210" width="45" height="78" as="geometry" />
        </mxCell>
        <mxCell id="DLzYbL6-j8xfiB1OlHj5-8" value="VULTR" style="text;html=1;align=center;verticalAlign=middle;whiteSpace=wrap;rounded=0;" vertex="1" parent="1">
          <mxGeometry x="100" y="288" width="60" height="30" as="geometry" />
        </mxCell>
        <mxCell id="DLzYbL6-j8xfiB1OlHj5-26" value="Text" style="text;html=1;align=center;verticalAlign=middle;whiteSpace=wrap;rounded=0;" vertex="1" parent="1">
          <mxGeometry x="460" y="490" width="60" height="30" as="geometry" />
        </mxCell>
        <mxCell id="DLzYbL6-j8xfiB1OlHj5-27" value="&lt;div align=&quot;left&quot;&gt;Réseau Privée : 172.31.0.0/24&lt;/div&gt;&lt;div align=&quot;left&quot;&gt;IP Range : 172.31.0.0.1-254&lt;/div&gt;&lt;div align=&quot;left&quot;&gt;Mask : 255.255.255.0&lt;br&gt;&lt;/div&gt;" style="text;html=1;align=left;verticalAlign=middle;whiteSpace=wrap;rounded=0;" vertex="1" parent="1">
          <mxGeometry x="112.5" y="390" width="180" height="60" as="geometry" />
        </mxCell>
        <mxCell id="DLzYbL6-j8xfiB1OlHj5-29" style="edgeStyle=orthogonalEdgeStyle;rounded=0;orthogonalLoop=1;jettySize=auto;html=1;exitX=0.5;exitY=1;exitDx=0;exitDy=0;exitPerimeter=0;" edge="1" parent="1" source="DLzYbL6-j8xfiB1OlHj5-28" target="DLzYbL6-j8xfiB1OlHj5-1">
          <mxGeometry relative="1" as="geometry" />
        </mxCell>
        <mxCell id="DLzYbL6-j8xfiB1OlHj5-28" value="" style="outlineConnect=0;dashed=0;verticalLabelPosition=bottom;verticalAlign=top;align=center;html=1;shape=mxgraph.aws3.internet_gateway;fillColor=#F58534;gradientColor=none;" vertex="1" parent="1">
          <mxGeometry x="330" y="250" width="69" height="72" as="geometry" />
        </mxCell>
        <mxCell id="DLzYbL6-j8xfiB1OlHj5-30" value="Internet" style="ellipse;shape=cloud;whiteSpace=wrap;html=1;" vertex="1" parent="1">
          <mxGeometry x="304.5" y="70" width="120" height="80" as="geometry" />
        </mxCell>
        <mxCell id="DLzYbL6-j8xfiB1OlHj5-31" style="edgeStyle=orthogonalEdgeStyle;rounded=0;orthogonalLoop=1;jettySize=auto;html=1;entryX=0.5;entryY=0;entryDx=0;entryDy=0;entryPerimeter=0;" edge="1" parent="1" source="DLzYbL6-j8xfiB1OlHj5-30" target="DLzYbL6-j8xfiB1OlHj5-28">
          <mxGeometry relative="1" as="geometry" />
        </mxCell>
        <mxCell id="DLzYbL6-j8xfiB1OlHj5-36" value="Laptop du SOC Analyste" style="verticalLabelPosition=bottom;html=1;verticalAlign=top;align=center;strokeColor=none;fillColor=#00BEF2;shape=mxgraph.azure.laptop;pointerEvents=1;" vertex="1" parent="1">
          <mxGeometry x="32.5" y="85" width="80" height="50" as="geometry" />
        </mxCell>
        <mxCell id="DLzYbL6-j8xfiB1OlHj5-37" style="rounded=0;orthogonalLoop=1;jettySize=auto;html=1;entryX=0.16;entryY=0.55;entryDx=0;entryDy=0;entryPerimeter=0;edgeStyle=orthogonalEdgeStyle;" edge="1" parent="1" source="DLzYbL6-j8xfiB1OlHj5-36" target="DLzYbL6-j8xfiB1OlHj5-30">
          <mxGeometry relative="1" as="geometry" />
        </mxCell>
        <mxCell id="DLzYbL6-j8xfiB1OlHj5-38" value="Connecté à Elastic/Kibana via Web GUI" style="edgeLabel;html=1;align=center;verticalAlign=middle;resizable=0;points=[];" vertex="1" connectable="0" parent="DLzYbL6-j8xfiB1OlHj5-37">
          <mxGeometry x="-0.4198" y="2" relative="1" as="geometry">
            <mxPoint x="35" y="2" as="offset" />
          </mxGeometry>
        </mxCell>
        <mxCell id="DLzYbL6-j8xfiB1OlHj5-39" value="&lt;div&gt;&lt;font color=&quot;#000000&quot;&gt;Laptop de l&#39;attaquant&lt;/font&gt;&lt;/div&gt;&lt;div&gt;&lt;font color=&quot;#000000&quot;&gt;Kali Linux&lt;br&gt;&lt;/font&gt;&lt;/div&gt;" style="verticalLabelPosition=bottom;html=1;verticalAlign=top;align=center;strokeColor=#B20000;fillColor=#e51400;shape=mxgraph.azure.laptop;pointerEvents=1;fontColor=#ffffff;" vertex="1" parent="1">
          <mxGeometry x="720" y="85" width="80" height="50" as="geometry" />
        </mxCell>
        <mxCell id="DLzYbL6-j8xfiB1OlHj5-40" style="edgeStyle=orthogonalEdgeStyle;rounded=0;orthogonalLoop=1;jettySize=auto;html=1;entryX=0.875;entryY=0.5;entryDx=0;entryDy=0;entryPerimeter=0;" edge="1" parent="1" source="DLzYbL6-j8xfiB1OlHj5-39" target="DLzYbL6-j8xfiB1OlHj5-30">
          <mxGeometry relative="1" as="geometry" />
        </mxCell>
        <mxCell id="DLzYbL6-j8xfiB1OlHj5-41" style="rounded=0;orthogonalLoop=1;jettySize=auto;html=1;entryX=0.96;entryY=0.7;entryDx=0;entryDy=0;entryPerimeter=0;" edge="1" parent="1" source="DLzYbL6-j8xfiB1OlHj5-6" target="DLzYbL6-j8xfiB1OlHj5-30">
          <mxGeometry relative="1" as="geometry" />
        </mxCell>
      </root>
    </mxGraphModel>
  </diagram>
</mxfile>
